# xmcd
#
# Track frame offsets: 
#        150
#        13449
#        34273
#        48147
#        64412
#        75582
#        88631
#        109815
#        128217
#        143812
#        154061
#        172926
#        186459
#
# Disc length: 2827 seconds
#
# Revision: 0
# Processed by: cddbd v1.5.2PL0 Copyright (c) Steve Scherf et al.
# Submitted via: ExactAudioCopy v1.3
#
DISCID=b00b090d
DTITLE=Three Tall Pines - Short While Ago
DYEAR=2008
DGENRE=Bluegrass
TTITLE0=Stillhouse Road
TTITLE1=Stone Walls
TTITLE2=Jenny Mule
TTITLE3=Carolina
TTITLE4=Bring the Wagon Home
TTITLE5=Gunna Get Paid
TTITLE6=Black Maria
TTITLE7=Little Suzie
TTITLE8=Gillford No. 309
TTITLE9=Gospel Plough
TTITLE10=Lodge Pole
TTITLE11=Horseshoe
TTITLE12=Pinewood Box
EXTD=
EXTT0=
EXTT1=
EXTT2=
EXTT3=
EXTT4=
EXTT5=
EXTT6=
EXTT7=
EXTT8=
EXTT9=
EXTT10=
EXTT11=
EXTT12=
PLAYORDER=
